<svg xmlns="http://www.w3.org/2000/svg" width="720" height="620" viewBox="0 0 720 620" fill="none">
  <title>TakeBoard — connected frames, an original canvas study</title>
  <defs>
    <linearGradient id="paper" x1="110" y1="100" x2="590" y2="510" gradientUnits="userSpaceOnUse"><stop stop-color="#fffefa"/><stop offset="1" stop-color="#ebe7df"/></linearGradient>
    <linearGradient id="blue" x1="265" y1="160" x2="535" y2="445" gradientUnits="userSpaceOnUse"><stop stop-color="#cedde8"/><stop offset=".48" stop-color="#9aacbb"/><stop offset="1" stop-color="#4d6479"/></linearGradient>
    <linearGradient id="ring" x1="332" y1="197" x2="445" y2="373" gradientUnits="userSpaceOnUse"><stop stop-color="#fff7e4"/><stop offset=".28" stop-color="#d9b477"/><stop offset=".65" stop-color="#8e683c"/><stop offset="1" stop-color="#edd2a1"/></linearGradient>
    <linearGradient id="sky" x1="58" y1="244" x2="204" y2="365" gradientUnits="userSpaceOnUse"><stop stop-color="#e5c8b6"/><stop offset="1" stop-color="#f3e6d7"/></linearGradient>
    <radialGradient id="ground"><stop stop-color="#7b756b" stop-opacity=".19"/><stop offset="1" stop-color="#7b756b" stop-opacity="0"/></radialGradient>
    <filter id="shadow" x="-40%" y="-40%" width="190%" height="210%"><feDropShadow dy="16" stdDeviation="18" flood-color="#262d35" flood-opacity=".12"/></filter>
    <filter id="soft" x="-50%" y="-50%" width="200%" height="200%"><feGaussianBlur stdDeviation="8"/></filter>
    <pattern id="dots" width="24" height="24" patternUnits="userSpaceOnUse"><circle cx="1" cy="1" r=".8" fill="#a6a59d" opacity=".32"/></pattern>
  </defs>
  <ellipse cx="367" cy="527" rx="305" ry="54" fill="url(#ground)"/>
  <rect x="22" y="34" width="676" height="524" rx="28" fill="url(#dots)"/>
  <path d="M79 99h-13v13M642 98h13v13M66 515v13h13M642 528h13v-13" stroke="#b7b2a7"/>
  <path d="M194 306h42c32 0 17-64 54-64h24M476 367h37c34 0 26 84 64 84h29M389 164V121c0-21 22-27 44-27h116" stroke="#a8977b" stroke-width="1.5"/>
  <g transform="rotate(-8 158 291)" filter="url(#shadow)">
    <rect x="48" y="207" width="178" height="208" rx="12" fill="#fffdf8" stroke="#d6d1c7"/>
    <rect x="59" y="219" width="156" height="154" rx="6" fill="url(#sky)"/>
    <circle cx="163" cy="254" r="18" fill="#fff6d9"/>
    <path d="M59 332l54-52 35 40 32-19 35 34v38H59z" fill="#bb8f73"/>
    <path d="M59 348l66-31 40 27 50-8v37H59z" fill="#8b6855"/>
    <rect x="61" y="389" width="43" height="3" rx="1.5" fill="#6e675b"/>
    <rect x="163" y="386" width="37" height="9" rx="4.5" fill="#ebe6da"/>
  </g>
  <g transform="rotate(5 400 303)" filter="url(#shadow)">
    <rect x="257" y="129" width="296" height="360" rx="15" fill="url(#paper)" stroke="#d4d1c9"/>
    <circle cx="276" cy="149" r="3" fill="#b59b6d"/>
    <path d="M289 149h64M505 147h6m-3-3v6M521 146l4 3-4 3" stroke="#858176" stroke-linecap="round"/>
    <rect x="270" y="170" width="270" height="270" rx="8" fill="url(#blue)"/>
    <path d="M270 358c83-30 167-17 270-2v84H270z" fill="#b6c4ca" opacity=".45"/>
    <ellipse cx="405" cy="393" rx="80" ry="12" fill="#1b3149" opacity=".25" filter="url(#soft)"/>
    <g transform="rotate(-25 405 292)">
      <ellipse cx="409" cy="294" rx="76" ry="106" stroke="#7d6341" stroke-width="27"/>
      <ellipse cx="401" cy="289" rx="76" ry="106" stroke="url(#ring)" stroke-width="25"/>
      <ellipse cx="399" cy="288" rx="64" ry="94" stroke="#f7e3b8" stroke-opacity=".55" stroke-width="1.2"/>
    </g>
    <path d="M286 463h79" stroke="#76766f" stroke-width="3" stroke-linecap="round"/>
    <circle cx="507" cy="462" r="11" fill="#252c30"/>
    <path d="m505 458 6 4-6 4z" fill="#e6cf9f"/>
  </g>
  <g transform="rotate(-5 574 451)" filter="url(#shadow)">
    <rect x="491" y="392" width="181" height="133" rx="12" fill="#fcfaf5" stroke="#d7d1c7"/>
    <rect x="502" y="403" width="159" height="88" rx="5" fill="#53677b"/>
    <path d="M502 471c53-44 92-39 159-26v46H502z" fill="#93a7b4"/>
    <path d="M502 481c71-32 108-17 159-6v16H502z" fill="#c4c9c3"/>
    <circle cx="581" cy="446" r="17" fill="#f6f2e6" fill-opacity=".94"/>
    <path d="m577 439 11 7-11 7z" fill="#293741"/>
    <path d="M506 508h45M633 508h21" stroke="#8a857b" stroke-width="2" stroke-linecap="round"/>
  </g>
  <g transform="rotate(7 574 103)">
    <rect x="539" y="70" width="73" height="65" rx="12" fill="#f7eddb" stroke="#d8c6a5"/>
    <path d="M558 87h34v10h-12v24h-10V97h-12z" fill="#856d48"/>
  </g>
  <g fill="#faf8f1" stroke="#a8977b" stroke-width="1.5"><circle cx="233" cy="298" r="4"/><circle cx="558" cy="417" r="4"/><circle cx="498" cy="94" r="4"/></g>
  <path d="m320 531 4 10 11 3-10 5-3 10-4-10-10-4 10-3z" fill="#b99a62"/>
</svg>
